<svg width="152" height="151" viewBox="0 0 152 151" fill="none" xmlns="http://www.w3.org/2000/svg">
<circle cx="72.3141" cy="74.9999" r="62.9167" fill="#006494"/>
<path d="M102.735 107.263V100.003C102.735 96.1522 101.205 92.459 98.4822 89.736C95.7592 87.0129 92.066 85.4832 88.2151 85.4832H59.1752C55.3243 85.4832 51.6311 87.0129 48.9081 89.736C46.185 92.459 44.6553 96.1522 44.6553 100.003V107.263M88.215 56.4433C88.215 64.4624 81.7142 70.9632 73.6951 70.9632C65.6759 70.9632 59.1751 64.4624 59.1751 56.4433C59.1751 48.4241 65.6759 41.9233 73.6951 41.9233C81.7142 41.9233 88.215 48.4241 88.215 56.4433Z" stroke="white" stroke-width="6.76343" stroke-linecap="round" stroke-linejoin="round"/>
</svg>
