<svg width="116" height="204" viewBox="0 0 116 204" fill="none" xmlns="http://www.w3.org/2000/svg">
<path d="M9.77469 44.6202C-2.29377 34.1421 -3.5804 27.3023 8.12023 12.634L23.0106 20.9063C7.56894 29.1786 6.11774 33.4782 9.77469 44.6202Z" fill="#006494"/>
<path d="M11.4293 33.039C15.7585 32.312 18.5367 29.5689 23.562 24.2153C28.1981 25.9602 30.8627 30.2816 29.6284 34.142C25.3444 47.5402 20.7383 44.2605 11.4293 33.039Z" fill="#006494"/>
<path d="M90.2919 117.968C90.2919 117.968 87.5343 171.462 88.0859 183.044C88.6376 194.625 98.4271 201.172 114.006 204L90.2919 117.968Z" fill="#006494"/>
<path d="M81.4683 172.014C68.2323 163.19 69.3352 150.506 85.3287 114.659C83.1225 145.542 83.1225 146.094 81.4683 172.014Z" fill="#006494"/>
<path d="M115.109 121.277C42.7717 89.4715 19.9322 76.2012 21.3559 63.3709C25.9162 38.1206 47.2758 38.0027 55.5481 41.3115C63.8204 44.6203 76.282 60.3503 87.5343 76.6064L68.2323 62.2678L115.109 121.277Z" fill="#006494"/>
<path d="M25.2165 19.2519C22.7855 11.8816 23.3838 9.45363 27.4225 7.67067C35.6947 4.01852 43.967 20.9063 32.3858 22.5608L36.7977 29.7295C44.8179 30.2638 49.5288 31.9659 58.3057 37.4503C59.9602 27.5236 34.0403 1.34496 27.4225 0.500849C15.7871 -0.983253 11.3847 0.614839 7.56894 8.22166L25.2165 19.2519Z" fill="#006494"/>
</svg>
