<svg width="38" height="38" viewBox="0 0 38 38" fill="none" xmlns="http://www.w3.org/2000/svg">
<path d="M11.0834 11.084H9.50004C8.66019 11.084 7.85473 11.4176 7.26087 12.0115C6.667 12.6053 6.33337 13.4108 6.33337 14.2507V28.5007C6.33337 29.3405 6.667 30.146 7.26087 30.7398C7.85473 31.3337 8.66019 31.6673 9.50004 31.6673H23.75C24.5899 31.6673 25.3953 31.3337 25.9892 30.7398C26.5831 30.146 26.9167 29.3405 26.9167 28.5007V26.9173" stroke="black" stroke-width="2" stroke-linecap="round" stroke-linejoin="round"/>
<path d="M25.3333 7.91684L30.0833 12.6668M32.2763 10.4264C32.8998 9.80283 33.2502 8.95706 33.2502 8.07517C33.2502 7.19328 32.8998 6.34751 32.2763 5.72392C31.6527 5.10033 30.8069 4.75 29.925 4.75C29.0431 4.75 28.1973 5.10033 27.5738 5.72392L14.25 19.0002V23.7502H19L32.2763 10.4264Z" stroke="black" stroke-width="2" stroke-linecap="round" stroke-linejoin="round"/>
</svg>
